<svg width="22" height="22" viewBox="0 0 22 22" fill="none" xmlns="http://www.w3.org/2000/svg">
<path d="M7.69967 15.584L10.9997 12.284L14.2997 15.584L15.583 14.3007L12.283 11.0007L15.583 7.70065L14.2997 6.41732L10.9997 9.71732L7.69967 6.41732L6.41634 7.70065L9.71634 11.0007L6.41634 14.3007L7.69967 15.584ZM10.9997 20.1673C9.73162 20.1673 8.53995 19.9267 7.42467 19.4454C6.3094 18.9642 5.33926 18.3111 4.51426 17.4861C3.68926 16.6611 3.03613 15.6909 2.55488 14.5757C2.07363 13.4604 1.83301 12.2687 1.83301 11.0007C1.83301 9.73259 2.07363 8.54093 2.55488 7.42565C3.03613 6.31037 3.68926 5.34023 4.51426 4.51523C5.33926 3.69023 6.3094 3.03711 7.42467 2.55586C8.53995 2.07461 9.73162 1.83398 10.9997 1.83398C12.2677 1.83398 13.4594 2.07461 14.5747 2.55586C15.69 3.03711 16.6601 3.69023 17.4851 4.51523C18.3101 5.34023 18.9632 6.31037 19.4445 7.42565C19.9257 8.54093 20.1663 9.73259 20.1663 11.0007C20.1663 12.2687 19.9257 13.4604 19.4445 14.5757C18.9632 15.6909 18.3101 16.6611 17.4851 17.4861C16.6601 18.3111 15.69 18.9642 14.5747 19.4454C13.4594 19.9267 12.2677 20.1673 10.9997 20.1673ZM10.9997 18.334C13.0469 18.334 14.7809 17.6236 16.2018 16.2027C17.6226 14.7819 18.333 13.0479 18.333 11.0007C18.333 8.95343 17.6226 7.2194 16.2018 5.79857C14.7809 4.37773 13.0469 3.66732 10.9997 3.66732C8.95245 3.66732 7.21842 4.37773 5.79759 5.79857C4.37676 7.2194 3.66634 8.95343 3.66634 11.0007C3.66634 13.0479 4.37676 14.7819 5.79759 16.2027C7.21842 17.6236 8.95245 18.334 10.9997 18.334Z" fill="#1D1B20"/>
</svg>
