<svg width="139" height="64" viewBox="0 0 139 64" fill="none" xmlns="http://www.w3.org/2000/svg">
<path d="M0.512695 63.9997V51.4842L0.788453 51.2568H6.50196C7.44534 51.2568 9.42886 51.8084 10.1836 52.3212C11.9881 53.5597 11.7317 56.5011 9.54497 57.4009C12.2493 58.6975 12.3219 61.7501 9.81589 63.2402C9.53045 63.4095 8.01621 63.9997 7.78883 63.9997H0.512695ZM3.83146 56.414H6.50196C6.65677 56.414 7.54693 56.0318 7.70658 55.8867C8.22423 55.4222 8.24358 54.3869 7.70658 53.908C7.54693 53.7628 6.66161 53.3807 6.50196 53.3807H3.83146V56.414ZM3.83146 61.8759H7.24215C8.05007 61.8759 8.52418 60.4004 8.43226 59.8392C8.31131 59.1183 7.37277 58.383 6.50679 58.383H3.8363V61.8711L3.83146 61.8759Z" fill="#B2B2B2"/>
<path d="M126.921 63.9997V51.4842L127.197 51.2568H132.91C133.268 51.2568 134.594 51.5326 135.019 51.6439C138.304 52.4953 138.778 55.906 135.953 57.4009C138.633 58.6781 138.701 61.7598 136.224 63.2402C135.852 63.4627 134.386 63.9997 134.013 63.9997H126.921ZM130.235 56.414H132.905C133.06 56.414 133.95 56.0318 134.11 55.8867C134.628 55.4222 134.647 54.3869 134.11 53.908C133.95 53.7628 133.065 53.3807 132.905 53.3807H130.235V56.414ZM130.235 61.8759H133.462C133.554 61.8759 134.347 61.4647 134.458 61.3292C135.324 60.2601 134.574 58.3878 132.91 58.3878H130.24V61.8759H130.235Z" fill="#B2B2B2"/>
<path d="M30.643 51.2569C35.0019 51.7407 36.3227 56.5979 32.196 58.1751L35.1567 63.9998H31.9299L29.1675 58.8427L26.8647 58.6927V63.9998H23.5459V51.4843L23.8217 51.2569C25.9503 51.4262 28.5773 51.0295 30.6382 51.2569H30.643ZM30.0867 53.5356C29.1965 53.3904 27.8177 53.642 26.8598 53.5356V56.5689H29.5303C29.6513 56.5689 30.9285 56.1673 31.0446 56.0706C31.9492 55.3352 31.3687 53.7484 30.0818 53.5356H30.0867Z" fill="#B2B2B2"/>
<path d="M39.3947 51.2568V56.414L44.0923 51.2568H47.6868L43.1392 56.3414L48.2383 63.9997H44.5518L41.0492 58.5378L39.3947 60.1343V63.9997H36.2598V51.2568H39.3947Z" fill="#B2B2B2"/>
<path d="M22.2588 51.2568V53.5306H15.81V56.4139H21.1558V58.6877H15.81V61.7211H22.3508C22.9265 62.2919 22.5056 63.2789 22.6265 63.9949H12.4912V51.4793L12.767 51.252H22.2588V51.2568Z" fill="#B2B2B2"/>
<path d="M112.915 63.9996L117.134 51.3438L121.125 51.2471L125.818 63.9996H122.499L121.599 60.9034L117.148 60.8841L115.958 63.9996H112.92H112.915ZM120.839 58.6925L119.272 53.6853L117.705 58.6925H120.839Z" fill="#B2B2B2"/>
<path d="M58.5574 51.2568V53.5355H52.1086V56.414H57.4495V58.6926H52.1086V61.7259H58.9251V63.9997H48.9736V51.2568H58.5574Z" fill="#B2B2B2"/>
<path d="M81.0389 51.2568V53.5355H74.59V56.414H79.931V58.6926H74.59V61.7259H81.4065V63.9997H71.4551V51.2568H81.0389Z" fill="#B2B2B2"/>
<path d="M85.4604 51.2568L88.6872 56.7139L92.1898 51.2568H95.228C95.1216 51.7068 94.7829 52.1664 94.5217 52.5727C93.975 53.429 90.2498 58.412 90.2498 58.7652V63.9997H87.1149V58.92C87.1149 58.5523 83.3317 53.342 82.7802 52.476C82.5431 52.1035 82.2287 51.6729 82.1416 51.2568H85.4604Z" fill="#B2B2B2"/>
<path d="M105.547 61.7259H111.812V63.9997H102.229V51.4842L102.504 51.2568H105.267L105.547 51.4842V61.7259Z" fill="#B2B2B2"/>
<path d="M63.5305 51.2568V61.7259H69.9793V63.9997H60.4004V51.2568H63.5305Z" fill="#B2B2B2"/>
<path d="M48.3924 16.6279V44.1989H46.3509V18.6695C42.5435 19.4823 40.8744 16.4247 38.0878 14.509C26.6608 6.63777 11.0926 7.53277 0.226778 15.9458C-0.0780067 15.3991 -0.0731689 14.0687 0.226778 13.5656C0.429968 13.2269 4.3583 10.8757 5.03077 10.5419C15.853 5.1719 29.1184 6.08142 39.1086 12.806C40.0907 13.464 43.2982 16.3909 43.8642 16.5602C45.0785 16.923 47.062 16.4441 48.3924 16.6279Z" fill="#B2B2B2"/>
<path d="M63.7091 44.1984H62.011V16.7968L58.2617 11.5236L54.1786 16.7968V44.1984H52.4805V16.1147L58.0972 8.80469L63.7091 16.4582V44.1984Z" fill="#B2B2B2"/>
<path d="M27.2319 3.40585C27.4979 3.83158 27.1738 5.13296 27.2851 5.73286L20.7056 2.40441L14.3583 5.73286C14.4648 5.12812 14.1455 3.82674 14.4115 3.40585C14.7599 2.85433 19.9073 0.914354 20.7153 0C21.499 0.614407 27.0432 3.09139 27.2367 3.40585H27.2319Z" fill="#B2B2B2"/>
<path d="M14.0148 22.4141V23.7735H11.2863L11.2911 26.502L8.88668 26.3521L8.56738 22.4141H14.0148Z" fill="#B2B2B2"/>
<path d="M35.799 22.4141L35.4652 23.6138L33.0753 23.7735V26.502L30.5499 26.5069L30.3516 22.4141H35.799Z" fill="#B2B2B2"/>
<path d="M42.9445 22.4141L42.9494 23.7735H40.2208L40.2257 26.502L37.8164 26.3521L37.502 22.4141H42.9445Z" fill="#B2B2B2"/>
<path d="M6.86441 22.4141L6.5306 23.6138L4.1407 23.7735L3.99557 26.1827L1.41699 26.502V22.4141H6.86441Z" fill="#B2B2B2"/>
<path d="M28.6496 22.4141L28.3206 23.6138L25.9259 23.7735L25.7807 26.1827L23.2021 26.502V22.4141H28.6496Z" fill="#B2B2B2"/>
<path d="M58.6055 19.6895L60.647 20.2023V25.9883C60.647 26.6656 58.6055 26.6656 58.6055 25.9883V19.6895Z" fill="#B2B2B2"/>
<path d="M21.1606 22.4141L21.1654 23.7735H18.4369L18.4417 26.502L16.2502 26.5069L16.0566 22.4141H21.1606Z" fill="#B2B2B2"/>
<path d="M57.5848 19.6895H55.8818V26.4963H57.5848V19.6895Z" fill="#B2B2B2"/>
</svg>
