<svg width="14" height="14" viewBox="0 0 14 14" fill="none" xmlns="http://www.w3.org/2000/svg">
<path d="M7 4.33333C8.402 4.33333 9 4.93133 9 6.33333H10.3333C10.3333 4.18333 9.15 3 7 3V4.33333V4.33333Z" fill="white"/>
<path d="M9.71081 13.3327H9.72948C10.0815 13.3327 10.4141 13.194 10.6661 12.942L12.4741 11.134C12.5361 11.0721 12.5853 10.9987 12.6188 10.9178C12.6523 10.8369 12.6696 10.7502 12.6696 10.6627C12.6696 10.5751 12.6523 10.4884 12.6188 10.4075C12.5853 10.3267 12.5361 10.2532 12.4741 10.1913L9.80748 7.52467C9.74562 7.4627 9.67215 7.41354 9.59127 7.38C9.5104 7.34646 9.4237 7.3292 9.33614 7.3292C9.24859 7.3292 9.16189 7.34646 9.08102 7.38C9.00014 7.41354 8.92667 7.4627 8.86481 7.52467L7.80214 8.58733C7.30948 8.44067 6.39014 8.10733 5.80748 7.52467C5.22481 6.942 4.89148 6.02267 4.74481 5.53L5.80748 4.46733C5.86944 4.40548 5.9186 4.33201 5.95214 4.25113C5.98568 4.17025 6.00295 4.08356 6.00295 3.996C6.00295 3.90844 5.98568 3.82175 5.95214 3.74087C5.9186 3.65999 5.86944 3.58653 5.80748 3.52467L3.14081 0.858C3.01336 0.737702 2.84474 0.670689 2.66948 0.670689C2.49422 0.670689 2.32559 0.737702 2.19814 0.858L0.390811 2.666C0.137478 2.91933 -0.00518897 3.26733 0.000144363 3.62267C0.0154777 4.572 0.266811 7.86933 2.86548 10.468C5.46414 13.0667 8.76148 13.3173 9.71081 13.3327V13.3327ZM2.67014 2.272L4.39414 3.996L3.53214 4.858C3.4537 4.93623 3.39608 5.03284 3.36452 5.13903C3.33296 5.24523 3.32848 5.35763 3.35148 5.466C3.36748 5.54267 3.75881 7.36067 4.86548 8.46733C5.97214 9.574 7.79014 9.96533 7.86681 9.98133C7.97518 10.0045 8.08761 10 8.19383 9.96847C8.30005 9.93691 8.39665 9.87921 8.47481 9.80067L9.33681 8.93867L11.0608 10.6627L9.72348 11.9993C8.89148 11.9853 6.04481 11.762 3.80814 9.52467C1.56414 7.28067 1.34681 4.424 1.33348 3.60867L2.67014 2.272ZM11.9995 5.99933H13.3328C13.3328 2.57933 10.7508 0 7.32614 0V1.33333C10.0341 1.33333 11.9995 3.29533 11.9995 5.99933V5.99933Z" fill="white"/>
</svg>
