<svg width="28" height="29" viewBox="0 0 28 29" fill="none" xmlns="http://www.w3.org/2000/svg">
<path d="M14 29C21.732 29 28 22.5081 28 14.5C28 6.49187 21.732 0 14 0C6.26801 0 0 6.49187 0 14.5C0 22.5081 6.26801 29 14 29Z" fill="white"/>
<path d="M17.8597 9.65039C17.3897 9.65039 17.0078 10.0459 17.0078 10.5327C17.0078 11.0195 17.3897 11.415 17.8597 11.415C18.3297 11.415 18.7115 11.0195 18.7115 10.5327C18.7115 10.0459 18.3297 9.65039 17.8597 9.65039Z" fill="#051D40"/>
<path d="M14.0583 10.7822C12.0785 10.7822 10.4688 12.4495 10.4688 14.5C10.4688 16.5506 12.0785 18.2178 14.0583 18.2178C16.0382 18.2178 17.6479 16.5506 17.6479 14.5C17.6479 12.4495 16.0382 10.7822 14.0583 10.7822ZM14.0583 16.8792C12.7894 16.8792 11.7612 15.8082 11.7612 14.5C11.7612 13.1918 12.7952 12.1209 14.0583 12.1209C15.3215 12.1209 16.3554 13.1918 16.3554 14.5C16.3554 15.8082 15.3215 16.8792 14.0583 16.8792Z" fill="#051D40"/>
<path d="M16.9079 22.0453H11.0917C8.67707 22.0453 6.71484 20.013 6.71484 17.5121V11.4882C6.71484 8.98739 8.67707 6.95508 11.0917 6.95508H16.9079C19.3225 6.95508 21.2847 8.98739 21.2847 11.4882V17.5121C21.2847 20.013 19.3225 22.0453 16.9079 22.0453ZM11.0917 8.37283C9.43494 8.37283 8.08371 9.77232 8.08371 11.4882V17.5121C8.08371 19.2281 9.43494 20.6276 11.0917 20.6276H16.9079C18.5646 20.6276 19.9159 19.2281 19.9159 17.5121V11.4882C19.9159 9.77232 18.5646 8.37283 16.9079 8.37283H11.0917Z" fill="#051D40"/>
</svg>
