<svg width="29" height="29" viewBox="0 0 29 29" fill="none" xmlns="http://www.w3.org/2000/svg">
<path d="M14.2709 28.278C22.0796 28.278 28.4099 21.9478 28.4099 14.139C28.4099 6.33025 22.0796 0 14.2709 0C6.46209 0 0.131836 6.33025 0.131836 14.139C0.131836 21.9478 6.46209 28.278 14.2709 28.278Z" fill="white"/>
<path d="M8.60302 10.8276H11.0357V18.6358H8.60302V10.8276ZM9.81935 6.94727C10.5966 6.94727 11.2255 7.57619 11.2255 8.35345C11.2255 9.13071 10.5966 9.75964 9.81935 9.75964C9.04209 9.75964 8.40723 9.13071 8.40723 8.35345C8.40723 7.57619 9.03615 6.94727 9.81935 6.94727Z" fill="#051D40"/>
<path d="M12.5606 10.8286H14.8865V11.8966H14.9161C15.2425 11.2795 16.0316 10.6328 17.2123 10.6328C19.6687 10.6328 20.1256 12.2467 20.1256 14.353V18.6368H17.6988V14.8395C17.6988 13.9317 17.681 12.7688 16.4351 12.7688C15.1891 12.7688 14.9814 13.7537 14.9814 14.7742V18.6368H12.5547V10.8286H12.5606Z" fill="#051D40"/>
</svg>
