<svg width="94" height="31" viewBox="0 0 94 31" fill="none" xmlns="http://www.w3.org/2000/svg">
<g clip-path="url(#clip0_1280_7698)">
<path d="M23.3903 0C23.4002 0.477984 23.4201 0.960564 23.425 1.43855C23.43 2.19689 23.425 2.95523 23.425 3.75953H22.9883C19.1029 3.75953 15.2125 3.75033 11.327 3.76412C9.69445 3.76872 8.05691 3.87443 6.51365 4.43973C5.95291 4.64655 5.41699 4.94989 4.93565 5.29459C4.30048 5.75419 3.9829 6.42061 3.9432 7.18354C3.91343 7.6937 3.93824 8.20386 3.93824 8.7232C4.57341 8.51179 5.17384 8.29118 5.78916 8.12113C7.63016 7.61097 9.52574 7.4685 11.4312 7.45471C14.0364 7.43632 16.6466 7.45471 19.2518 7.45471H19.5098V11.2004C19.356 11.2004 19.222 11.2004 19.083 11.2004C16.2397 11.2004 13.4013 11.1775 10.5579 11.2234C8.91042 11.2464 7.27784 11.4394 5.77427 12.1702C4.23101 12.9193 3.58095 14.3441 4.07718 15.8378C4.36003 16.6789 4.98527 17.2304 5.7842 17.6211C6.99499 18.2185 8.31495 18.4208 9.65476 18.5173C10.4835 18.577 11.3171 18.5862 12.1508 18.5908C15.7534 18.6 19.3609 18.5908 22.9635 18.5908H23.4002V22.3365H23.0131C19.1724 22.3365 15.3316 22.3549 11.4958 22.332C9.20319 22.3182 6.92551 22.1297 4.74708 21.3484C3.01526 20.7234 1.5762 19.7582 0.722695 18.1312C0.355488 17.4326 0.156998 16.6927 0.0577528 15.9205C0.0478283 15.824 0.0130925 15.7321 -0.0117188 15.6402V6.71016C0.0130925 6.61824 0.0478283 6.52632 0.0577528 6.4298C0.166922 5.57954 0.400148 4.76605 0.836827 4.01231C1.67049 2.57376 2.98548 1.67754 4.54859 1.08006C5.99757 0.523944 7.51602 0.271164 9.06425 0.133284C9.6101 0.087324 10.151 0.041364 10.6968 0H23.3804L23.3903 0Z" fill="white"/>
<path d="M40.0258 0C40.5716 0.04596 41.1125 0.087324 41.6584 0.133284C43.4051 0.289548 45.122 0.588288 46.7248 1.30526C49.3548 2.48643 50.6599 4.4811 50.7244 7.2341C50.7542 8.45664 50.5656 9.6424 49.9801 10.7454C49.1712 12.2621 47.8364 13.1997 46.2237 13.8248C44.596 14.4544 42.889 14.7761 41.1473 14.8129C37.9913 14.8864 34.8303 14.8726 31.6743 14.8956C31.5354 14.8956 31.4014 14.8956 31.2277 14.8956V22.3136H27.3373V11.1729H27.774C31.5453 11.1729 35.3117 11.1821 39.083 11.1729C40.6312 11.1683 42.1794 11.0855 43.683 10.6719C44.596 10.4191 45.4495 10.0698 46.0946 9.36664C47.1714 8.19466 47.0325 6.3103 45.8019 5.28999C44.9037 4.54085 43.8021 4.20993 42.6608 4.04907C41.5839 3.89741 40.4923 3.7871 39.4055 3.77791C35.53 3.74574 31.6545 3.76412 27.779 3.76412H27.3472C27.3323 3.69518 27.3125 3.64463 27.3125 3.58947C27.3125 2.47265 27.3125 1.35122 27.3125 0.234396C27.3125 0.156264 27.3323 0.082728 27.3472 0.004596H40.0308L40.0258 0Z" fill="white"/>
<path d="M85.8269 0V3.75953H85.3902C81.5742 3.75953 77.7582 3.75953 73.9423 3.75953C72.8208 3.75953 71.7142 3.89281 70.6523 4.23751C68.5384 4.92231 67.2283 6.33328 66.6726 8.37391C66.1664 10.2353 66.1664 12.1196 66.6726 13.9764C67.3574 16.4721 69.109 17.906 71.739 18.3748C72.4933 18.5081 73.2773 18.5724 74.0465 18.577C77.8178 18.5954 81.5841 18.5862 85.3555 18.5862H85.8021V22.3319H85.41C81.604 22.3319 77.8029 22.3457 73.9969 22.3274C71.9574 22.3182 69.9477 22.0746 68.0521 21.2841C65.5263 20.2316 63.8739 18.4162 63.1047 15.9297C62.0924 12.6436 62.0775 9.32528 63.2337 6.06672C64.3602 2.89548 66.8314 1.11223 70.2007 0.41364C71.1138 0.225204 72.0566 0.170052 72.9846 0.055152C73.0838 0.041364 73.183 0.018384 73.2823 0L85.8269 0Z" fill="white"/>
<path d="M58.4849 0C58.4948 0.142476 58.5196 0.289548 58.5196 0.432024C58.5196 7.5834 58.5196 14.7394 58.5196 21.8907V22.309H54.6094V0H58.4849Z" fill="white"/>
<path d="M87.4438 30.9996L86.2578 30.5998C86.4365 30.2781 86.5754 30.0161 86.7143 29.7679C86.9724 29.8874 87.1907 30.0207 87.4339 30.085C87.5877 30.1264 87.7911 30.1126 87.94 30.0529C88.2179 29.9471 88.2328 29.6484 87.9747 29.5059C87.7763 29.3956 87.543 29.3405 87.3197 29.2715C86.6349 29.0601 86.4216 28.789 86.4513 28.1593C86.4811 27.571 86.8831 27.1022 87.4785 27.0011C88.0393 26.9092 88.5702 27.0149 89.0863 27.2953C88.9474 27.5526 88.8134 27.7962 88.6844 28.0398C87.9896 27.7135 87.7117 27.7411 87.5331 28.1961C87.6472 28.2742 87.7663 28.3753 87.9003 28.4397C88.0244 28.4994 88.1683 28.5224 88.3023 28.5637C89.0019 28.7798 89.2649 29.0877 89.2451 29.676C89.2252 30.347 88.8779 30.7698 88.203 30.9307C88.1137 30.9537 88.0293 30.9812 87.94 31.0088H87.4488L87.4438 30.9996Z" fill="white"/>
<path d="M31.2872 31.0002C30.8951 30.8163 30.4485 30.6968 30.1161 30.4395C29.3866 29.8833 29.2129 28.8676 29.6397 28.0633C30.0615 27.2636 31.044 26.8132 31.9719 27.0016C32.1307 27.0338 32.2846 27.0844 32.4582 27.1349V28.1874C32.1208 28.1093 31.7735 27.9668 31.4261 27.9668C31.2078 27.9668 30.9398 28.1323 30.7711 28.2977C30.3989 28.6654 30.4237 29.3088 30.776 29.6765C31.1829 30.1039 31.7735 30.1039 32.4483 29.6535V30.7933L31.7735 31.0002H31.2822H31.2872Z" fill="white"/>
<path d="M94.0014 2.08199H93.5201V0.629652L93.4506 0.615864C93.267 1.08466 93.0883 1.55804 92.8948 2.05901L92.607 2.08199C92.4284 1.61779 92.2547 1.16738 92.086 0.721571H92.0115V2.0682H91.5352V0H92.2398C92.4036 0.372276 92.5673 0.749147 92.7559 1.18117C92.9295 0.744551 93.0784 0.372276 93.2273 0H94.0014V2.08199Z" fill="white"/>
<path d="M91.249 0V0.41364L90.6139 0.455004V2.0682H90.0978V0.468792L89.4477 0.409044L89.418 0H91.249Z" fill="white"/>
<path d="M51.1448 28.832L50.2516 30.8496H49.8149C49.5321 30.1878 49.2443 29.5076 48.9565 28.832H48.892C48.7878 29.4938 48.6835 30.1556 48.5744 30.8358H47.5273C47.7506 29.5719 47.9739 28.3218 48.2022 27.0625H49.2344C49.4924 27.6967 49.7504 28.3356 50.0382 29.0526C50.3409 28.3448 50.6089 27.7105 50.8868 27.0671H51.9338C52.1323 28.3264 52.3308 29.5765 52.5343 30.8496H51.4872C51.3929 30.1786 51.3036 29.5122 51.2093 28.8457L51.1399 28.832H51.1448Z" fill="white"/>
<path d="M24.53 28.6835V30.8436H23.5078V27.0703H24.535C25.1255 27.7919 25.7408 28.5364 26.4008 29.3453V27.0795H27.4578V30.8436H26.3958C25.8053 30.1221 25.2049 29.3867 24.5995 28.6513L24.5201 28.6835H24.53Z" fill="white"/>
<path d="M7.38777 27.0254C8.04775 27.053 8.69781 27.0254 9.32305 27.1265C10.3205 27.2828 10.9556 28.2066 10.8465 29.2269C10.7522 30.1139 9.88875 30.8539 8.92111 30.863C8.41496 30.8676 7.91377 30.863 7.38281 30.863V27.0254H7.38777ZM8.45466 27.9354V30.0036C9.29824 30.0542 9.79943 29.6451 9.77958 28.9465C9.75973 28.2617 9.25855 27.8711 8.45466 27.9354Z" fill="white"/>
<path d="M39.0245 30.8632V27.0117C39.7242 27.0577 40.4239 27.0209 41.0838 27.1588C42.0664 27.361 42.642 28.3216 42.4832 29.3097C42.3442 30.1646 41.4907 30.8586 40.5479 30.8632C40.0467 30.8632 39.5406 30.8632 39.0195 30.8632H39.0245ZM40.0815 30.0129C40.5975 30.0313 41.0342 29.9486 41.2724 29.5211C41.5007 29.1213 41.4858 28.6939 41.2079 28.317C40.935 27.9539 40.533 27.8804 40.0815 27.9217V30.0129Z" fill="white"/>
<path d="M69.5325 30.8526H68.4805V27.0195C69.1901 27.0563 69.8897 27.0517 70.5745 27.1482C71.0857 27.2172 71.3586 27.6032 71.3933 28.0674C71.438 28.6879 71.2444 29.0372 70.7284 29.267C70.6887 29.2854 70.649 29.3083 70.5795 29.3497C70.9765 29.8415 71.3635 30.3241 71.7804 30.8434H70.4703C70.1875 30.4252 69.8947 29.9977 69.6069 29.5657L69.5325 29.5749V30.8526ZM69.5374 28.7568C70.118 28.7338 70.3562 28.573 70.3115 28.2421C70.2718 27.9433 69.989 27.8054 69.5374 27.879V28.7568Z" fill="white"/>
<path d="M58.2748 30.8574H57.1583L56.8953 30.2278H55.496L55.2131 30.8528H54.1016C54.6127 29.5843 55.1188 28.3342 55.625 27.0703H56.7812C57.2774 28.3204 57.7736 29.5797 58.2798 30.8574H58.2748ZM56.1956 28.2699C56.0418 28.6973 55.9177 29.0512 55.7838 29.4327H56.5926C56.4686 29.0696 56.3495 28.7249 56.1956 28.2699Z" fill="white"/>
<path d="M21.6811 30.8529H20.5646L20.2966 30.2233H18.9022L18.6194 30.8483H17.5078C18.0239 29.5707 18.53 28.3159 19.0362 27.0566H20.1825C20.6787 28.3113 21.1749 29.5661 21.6811 30.8483V30.8529ZM20.0138 29.4282L19.6366 28.3619L19.5622 28.3711L19.195 29.4282H20.0138Z" fill="white"/>
<path d="M2.91119 27.0625H4.05747L5.55607 30.8542H4.43956L4.17656 30.2291H2.77224L2.49932 30.8496H1.38281L2.91119 27.0625ZM3.0799 29.4157H3.88875L3.48185 28.2712L3.0799 29.4157Z" fill="white"/>
<path d="M77.9162 27.0625H79.0624C79.5587 28.3126 80.0549 29.5673 80.561 30.8496H79.4445C79.3552 30.6428 79.2609 30.4314 79.1666 30.2154H77.7871L77.4944 30.8496H76.3828C76.8989 29.5719 77.405 28.3172 77.9112 27.0625H77.9162ZM78.5265 28.3724L78.4521 28.3632C78.328 28.7171 78.2089 29.0664 78.0799 29.4294H78.8888C78.7597 29.0572 78.6456 28.7171 78.5265 28.3724Z" fill="white"/>
<path d="M16.6064 27.0664L14.9093 30.8535H14.0707L12.3984 27.0664H13.5447L14.4975 29.3322L15.4651 27.0664H16.6064Z" fill="white"/>
<path d="M65.1351 30.0255H66.3111V30.8482H64.0781V27.0703H66.3161V27.9114H65.1301V28.5226H66.2714V29.3729H65.1351V30.0255Z" fill="white"/>
<path d="M34.625 27.0703H36.863V27.9068H35.672V28.5135H36.7935V29.3821H35.672V30.0118H36.858V30.8436H34.625V27.0703Z" fill="white"/>
<path d="M60.3152 27.9022H59.4766V27.0703H62.2008V27.9068H61.3672V30.8436H60.3152V27.9022Z" fill="white"/>
<path d="M82.3906 27.0703H83.4079V30.0163H84.6435V30.8528H82.3906V27.0703Z" fill="white"/>
<path d="M74.5617 30.8475H73.5742V27.0742H74.5617V30.8475Z" fill="white"/>
</g>
<defs>
<clipPath id="clip0_1280_7698">
<rect width="94" height="31" fill="white"/>
</clipPath>
</defs>
</svg>
