<svg width="268" height="60" viewBox="0 0 268 60" fill="none" xmlns="http://www.w3.org/2000/svg">
<g clip-path="url(#clip0_1360_10725)">
<path d="M23.6299 3.98633L23.2523 55.2602C21.6735 54.3491 20.1099 53.3852 18.5237 52.474C13.1681 49.3941 7.5255 46.397 2.31346 43.1214C1.90556 42.8653 0.999116 42.6244 1.0671 42.1349L23.6299 3.98633Z" fill="#B2B2B2"/>
<path d="M25.7275 0.537899C26.3545 0.372233 26.6113 0.824051 26.8984 0.982188C33.5834 4.61933 40.9104 8.75347 47.3462 12.8198C47.5728 12.9629 48.1242 12.8951 48.1318 13.347L25.7275 51.6537V0.537899Z" fill="#B2B2B2"/>
<path d="M67.3716 12.8281L76.3152 34.4175L85.1908 12.8281H90.2215V41.1647H86.6184V17.7755L76.776 41.1722L75.3559 41.1496L65.7174 17.7755V41.1647H62.1143V12.8281H67.3716Z" fill="#B2B2B2"/>
<path d="M170.578 12.8278C171.296 13.8595 172.157 14.7933 172.905 15.7873C176.629 20.7347 180.224 25.7197 183.933 30.7048C184.673 31.6988 185.806 33.6793 186.592 34.4474C186.72 34.5754 186.879 34.6582 187.045 34.7109V12.8203H190.656C190.694 12.9333 190.505 13.001 190.505 13.0462V41.1569H187.121L181.274 33.3479C178.253 28.9201 174.944 24.786 171.794 20.4636C171.364 19.8762 171.084 19.1157 170.51 18.6714V41.1569H166.899V12.8278H170.586H170.578Z" fill="#B2B2B2"/>
<path d="M156.825 36.8856C152.247 42.0364 144.293 43.2036 138.227 39.9881C128.423 34.7922 128.476 19.1819 138.273 14.0387C144.444 10.8006 152.126 11.9678 156.628 17.352L156.666 17.7586L153.886 19.2798C153.675 19.2873 152.761 18.1502 152.489 17.9243C147.277 13.6094 138.96 15.1757 135.901 21.2602C131.716 29.5812 137.789 40.1312 147.541 38.4143C148.599 38.226 153.365 36.3736 153.365 35.229V29.9803L153.138 29.7544H143.44V26.6068H156.817V36.8781L156.825 36.8856Z" fill="#B2B2B2"/>
<path d="M98.1924 41.1644L109.712 12.8203L114.131 12.9031C114.501 13.0839 114.977 14.9665 115.181 15.4559C116.329 18.2421 117.394 20.8777 118.527 23.664C120.891 29.4924 123.346 35.2832 125.559 41.1644H121.503L118.912 34.967C118.708 34.8841 118.489 34.8766 118.27 34.8615C114.682 34.598 109.251 34.6507 105.633 34.8615C105.308 34.8766 104.976 34.8615 104.696 35.0573L102.181 41.1644H98.1999H98.1924ZM118.036 31.7139L111.797 16.721L106.01 31.7139H118.036Z" fill="#B2B2B2"/>
<path d="M234.853 12.8262V15.5973C234.853 15.65 234.672 15.8308 234.695 15.9663C234.377 15.8232 234.06 15.9663 233.879 15.9663H219.67V25.1081H234.551V28.2558H219.67V41.1477H216.06V12.8262H234.853Z" fill="#B2B2B2"/>
<path d="M22.4203 0.990234L6.91261 27.7906L6.48961 27.8207L1.1416 13.1216L22.4203 0.990234Z" fill="#B2B2B2"/>
<path d="M42.5658 27.668L47.9515 41.8701L47.9062 42.5102L26.7861 54.4985L42.5658 27.668Z" fill="#B2B2B2"/>
<path d="M245.377 12.8262C245.452 13.0596 245.566 13.406 245.694 13.6018C247.922 17.0657 250.491 20.5447 252.84 23.971C253.225 24.5358 253.671 25.2888 253.95 25.8687C257.168 21.6893 259.88 17.1636 262.894 12.8262H267.026C266.784 13.5114 266.232 13.9934 265.847 14.5732C262.584 19.4227 259.313 24.3174 255.907 29.0916V41.1627H252.296V29.0916C248.851 24.3852 245.656 19.4001 242.317 14.5356C242.061 14.159 241.547 13.6922 241.283 13.2629C241.184 13.1048 241.124 13.0446 241.177 12.8262H245.384H245.377Z" fill="#B2B2B2"/>
<path d="M205.235 12.8262V40.9368L205.009 41.1627H201.474V12.8262H205.235Z" fill="#B2B2B2"/>
<path d="M227.481 46.5547L229.257 46.5848C229.468 47.2249 230.065 47.624 230.427 48.1135C232.104 50.3198 233.743 52.6768 235.443 54.9133C235.7 55.2522 235.874 56.073 236.501 56.1558V46.5622L237.906 46.5848L238.155 46.9387L238.087 59.168L236.538 59.2659L229.136 49.4162V59.311H227.481V46.5697V46.5547Z" fill="#B2B2B2"/>
<path d="M0.0244141 17.3215C0.432313 17.2537 0.281239 17.3968 0.36433 17.6528C1.49738 20.9737 2.90992 24.5204 4.13362 27.8413C4.47353 28.7675 4.93431 29.6486 5.23645 30.5899C3.99765 32.6005 2.87215 34.6939 1.68622 36.7421C1.28588 37.4274 0.787336 38.4063 0.36433 39.0163C0.273686 39.1518 0.394544 39.2949 0.0319677 39.2121V17.3215H0.0244141Z" fill="#B2B2B2"/>
<path d="M49.035 38.0158C48.5893 38.0911 48.7933 37.9029 48.7178 37.6619C47.4261 33.8139 45.4395 29.8454 44.2762 26.0501C44.178 25.7414 44.0496 25.3724 44.0647 25.0486C44.0949 24.4914 45.6132 22.2549 46.006 21.5696C46.6329 20.4627 47.3128 19.3482 47.9624 18.2487C48.0757 18.053 48.8764 16.1252 49.1861 16.4264C49.2465 16.5996 49.035 16.7577 49.035 16.8029V38.0158Z" fill="#B2B2B2"/>
<path d="M250.279 48.7536C249.433 49.597 249.274 48.7461 248.874 48.5051C247.771 47.8349 245.316 47.3756 244.243 48.2039C243.329 48.9118 242.967 50.2296 244.069 50.945C246.464 52.4962 251.419 51.8787 250.951 56.2388C250.611 59.4316 246.827 59.8307 244.296 59.2584C243.254 59.025 241.766 58.3849 241.396 57.3533L242.143 56.3065C243.684 57.6545 245.407 58.3096 247.522 57.9256C248.859 57.6846 249.606 56.2011 249.055 54.9661C248.33 53.3622 243.208 53.7613 242 51.2085C241.501 50.1543 241.531 49.4615 242.045 48.4072C243.239 45.9373 247.053 45.8996 249.236 46.9915C249.992 47.3681 251.117 47.9328 250.286 48.7612L250.279 48.7536Z" fill="#B2B2B2"/>
<path d="M223.515 47.669C223.756 47.8723 224.414 48.55 224.323 48.8738L223.198 49.5064C222.903 49.5365 222.359 48.678 222.027 48.4672C217.842 45.824 213.468 50.3272 214.941 54.7851C215.938 57.7972 219.821 59.0171 222.359 57.1195C222.684 56.8785 222.888 56.3138 223.19 56.2987L224.315 56.7656C224.066 58.2942 221.77 59.3485 220.35 59.4539C214.654 59.9057 211.172 54.4914 213.831 49.5064C215.606 46.178 220.622 45.199 223.522 47.6614L223.515 47.669Z" fill="#B2B2B2"/>
<path d="M196.964 59.3048L195.748 59.2371L195.31 58.4012C195.325 58.5142 195.295 58.6347 195.204 58.7024C192.931 60.2311 189.29 59.6061 189.282 56.3756C189.282 53.8981 191.541 53.0848 193.694 53.4839C194.321 53.5969 195 54.1541 195.605 54.3499C196.149 50.6751 192.757 50.1103 190.438 52.2414L189.766 51.4056C190.808 49.5682 194.683 49.3498 196.133 50.6073C196.352 50.7956 196.957 51.6541 196.957 51.8875V59.3048H196.964ZM194.955 55.0126C192.825 53.386 189.516 55.4041 191.186 57.6406C191.986 58.725 194.147 58.6497 195.083 57.8063C195.922 57.0458 195.831 55.6828 194.955 55.0126Z" fill="#B2B2B2"/>
<path d="M202.675 47.4584V50.0037L204.481 50.0865V51.3516H202.675V57.421C202.675 57.7825 203.166 58.2042 203.514 58.2494C203.99 58.3096 204.254 57.8653 204.541 57.9481L204.911 58.9723C204.042 59.65 201.965 59.7404 201.429 58.656C200.53 56.8337 201.255 53.3923 201.013 51.3441L199.654 51.2763C199.11 49.9058 199.865 49.8982 201.013 49.9961L201.165 47.4434H202.668L202.675 47.4584Z" fill="#B2B2B2"/>
<path d="M255.897 46.5547V59.3035L254.311 59.1604L254.243 46.9312L254.492 46.5773L255.897 46.5547Z" fill="#B2B2B2"/>
</g>
<defs>
<clipPath id="clip0_1360_10725">
<rect width="267" height="59" fill="white" transform="translate(0.0244141 0.5)"/>
</clipPath>
</defs>
</svg>
