<svg width="110" height="86" viewBox="0 0 110 86" fill="none" xmlns="http://www.w3.org/2000/svg">
<path fill-rule="evenodd" clip-rule="evenodd" d="M49.754 60.3705C48.8042 60.157 46.107 57.7227 46.107 57.7227L45.2607 58.5158C45.2607 58.5158 47.2151 60.7915 48.378 62.3838L49.754 60.3705Z" fill="#B2B2B2"/>
<path fill-rule="evenodd" clip-rule="evenodd" d="M37.1757 69.7461C37.474 69.7461 37.7175 69.5021 37.7175 69.2031C37.7175 68.9042 37.474 68.6602 37.1757 68.6602C36.8773 68.6602 36.6338 68.9042 36.6338 69.2031C36.6338 69.5021 36.8773 69.7461 37.1757 69.7461Z" fill="#B2B2B2"/>
<path fill-rule="evenodd" clip-rule="evenodd" d="M37.6806 73.9994C37.9059 73.9994 38.0885 73.8164 38.0885 73.5845C38.0885 73.3527 37.9059 73.1758 37.6806 73.1758C37.4553 73.1758 37.2666 73.3588 37.2666 73.5845C37.2666 73.8103 37.4493 73.9994 37.6806 73.9994Z" fill="#B2B2B2"/>
<path fill-rule="evenodd" clip-rule="evenodd" d="M56.7435 69.9611C56.9505 69.9611 57.1148 69.7964 57.1148 69.589C57.1148 69.3815 56.9505 69.2168 56.7435 69.2168C56.5365 69.2168 56.3721 69.3815 56.3721 69.589C56.3721 69.7964 56.5365 69.9611 56.7435 69.9611Z" fill="#B2B2B2"/>
<path fill-rule="evenodd" clip-rule="evenodd" d="M69.6514 62.0657C69.7976 62.0657 69.9132 61.9498 69.9132 61.8034C69.9132 61.6569 69.7976 61.541 69.6514 61.541C69.5053 61.541 69.3896 61.6569 69.3896 61.8034C69.3896 61.9498 69.5053 62.0657 69.6514 62.0657Z" fill="#B2B2B2"/>
<path fill-rule="evenodd" clip-rule="evenodd" d="M70.0225 67.2024C70.1687 67.2024 70.2843 67.0865 70.2843 66.9401C70.2843 66.7937 70.1687 66.6777 70.0225 66.6777C69.8764 66.6777 69.7607 66.7937 69.7607 66.9401C69.7607 67.0865 69.8764 67.2024 70.0225 67.2024Z" fill="#B2B2B2"/>
<path fill-rule="evenodd" clip-rule="evenodd" d="M72.4393 76.9219C72.7377 76.9219 72.9812 76.6779 72.9812 76.3789C72.9812 76.08 72.7377 75.8359 72.4393 75.8359C72.141 75.8359 71.8975 76.08 71.8975 76.3789C71.8975 76.6779 72.141 76.9219 72.4393 76.9219Z" fill="#B2B2B2"/>
<path fill-rule="evenodd" clip-rule="evenodd" d="M72.9693 59.8999C73.2798 59.8999 73.5294 59.6498 73.5294 59.3386C73.5294 59.0275 73.2798 58.7773 72.9693 58.7773C72.6588 58.7773 72.4092 59.0275 72.4092 59.3386C72.4092 59.6498 72.6588 59.8999 72.9693 59.8999Z" fill="#B2B2B2"/>
<path fill-rule="evenodd" clip-rule="evenodd" d="M73.1277 63.0476C73.2799 63.0476 73.4078 62.9195 73.4078 62.767C73.4078 62.6144 73.2799 62.4863 73.1277 62.4863C72.9755 62.4863 72.8477 62.6144 72.8477 62.767C72.8477 62.9195 72.9755 63.0476 73.1277 63.0476Z" fill="#B2B2B2"/>
<path fill-rule="evenodd" clip-rule="evenodd" d="M78.3699 57.0632C78.5221 57.0632 78.65 56.9351 78.65 56.7826C78.65 56.6301 78.5221 56.502 78.3699 56.502C78.2177 56.502 78.0898 56.6301 78.0898 56.7826C78.0898 56.9351 78.2177 57.0632 78.3699 57.0632Z" fill="#B2B2B2"/>
<path fill-rule="evenodd" clip-rule="evenodd" d="M83.4957 62.9499C83.6905 62.9499 83.8488 62.7913 83.8488 62.596C83.8488 62.4008 83.6905 62.2422 83.4957 62.2422C83.3009 62.2422 83.1426 62.4008 83.1426 62.596C83.1426 62.7913 83.3009 62.9499 83.4957 62.9499Z" fill="#B2B2B2"/>
<path fill-rule="evenodd" clip-rule="evenodd" d="M85.8038 61.8575C86.0595 61.8575 86.2726 61.6501 86.2726 61.3877C86.2726 61.1254 86.0656 60.918 85.8038 60.918C85.542 60.918 85.335 61.1254 85.335 61.3877C85.335 61.6501 85.542 61.8575 85.8038 61.8575Z" fill="#B2B2B2"/>
<path fill-rule="evenodd" clip-rule="evenodd" d="M79.2162 66.7936C79.4658 66.7936 79.6667 66.5922 79.6667 66.3421C79.6667 66.092 79.4658 65.8906 79.2162 65.8906C78.9665 65.8906 78.7656 66.092 78.7656 66.3421C78.7656 66.5922 78.9665 66.7936 79.2162 66.7936Z" fill="#B2B2B2"/>
<path fill-rule="evenodd" clip-rule="evenodd" d="M83.934 68.9412C84.0679 68.9412 84.1775 68.8314 84.1775 68.6972C84.1775 68.5629 84.0679 68.4531 83.934 68.4531C83.8 68.4531 83.6904 68.5629 83.6904 68.6972C83.6904 68.8314 83.8 68.9412 83.934 68.9412Z" fill="#B2B2B2"/>
<path fill-rule="evenodd" clip-rule="evenodd" d="M53.9674 8.73001C54.2779 8.73001 54.5275 8.47987 54.5275 8.16872C54.5275 7.85756 54.2779 7.60742 53.9674 7.60742C53.6568 7.60742 53.4072 7.85756 53.4072 8.16872C53.4072 8.47987 53.6568 8.73001 53.9674 8.73001Z" fill="#B2B2B2"/>
<path fill-rule="evenodd" clip-rule="evenodd" d="M51.7512 2.86107C51.9277 2.86107 52.0678 2.72075 52.0678 2.54382C52.0678 2.36689 51.9277 2.22656 51.7512 2.22656C51.5746 2.22656 51.4346 2.36689 51.4346 2.54382C51.4346 2.72075 51.5746 2.86107 51.7512 2.86107Z" fill="#B2B2B2"/>
<path fill-rule="evenodd" clip-rule="evenodd" d="M51.2092 10.1146C51.3127 10.1146 51.398 10.0292 51.398 9.92546C51.398 9.82174 51.3127 9.73633 51.2092 9.73633C51.1057 9.73633 51.0205 9.82174 51.0205 9.92546C51.0205 10.0292 51.1057 10.1146 51.2092 10.1146Z" fill="#B2B2B2"/>
<path fill-rule="evenodd" clip-rule="evenodd" d="M42.448 10.976C42.6732 10.976 42.8559 10.793 42.8559 10.5611C42.8559 10.3293 42.6732 10.1523 42.448 10.1523C42.2227 10.1523 42.04 10.3354 42.04 10.5611C42.04 10.7869 42.2227 10.976 42.448 10.976Z" fill="#B2B2B2"/>
<path fill-rule="evenodd" clip-rule="evenodd" d="M41.6936 10.0228C41.7971 10.0228 41.8824 9.93738 41.8824 9.83366C41.8824 9.72995 41.7971 9.64453 41.6936 9.64453C41.5901 9.64453 41.5049 9.72995 41.5049 9.83366C41.5049 9.93738 41.5901 10.0228 41.6936 10.0228Z" fill="#B2B2B2"/>
<path fill-rule="evenodd" clip-rule="evenodd" d="M59.8731 18.4372C60.0922 18.4372 60.2627 18.2603 60.2627 18.0467C60.2627 17.8332 60.0861 17.6562 59.8731 17.6562C59.66 17.6562 59.4834 17.8332 59.4834 18.0467C59.4834 18.2603 59.66 18.4372 59.8731 18.4372Z" fill="#B2B2B2"/>
<path fill-rule="evenodd" clip-rule="evenodd" d="M64.6587 41.4375C64.6587 41.4375 71.5812 43.5668 69.2554 49.5397C69.2554 49.5397 66.2417 55.6285 57.31 52.6634L55.4896 54.3046L55.4227 48.5208L58.0224 50.4914C58.0224 50.4914 63.9951 52.1204 64.0986 48.6916C64.0986 48.6916 63.7942 47.4226 59.2096 46.0194C59.2096 46.0194 53.8701 44.3782 55.0878 39.6621C55.0878 39.6621 55.9341 32.3287 66.5278 35.2938L68.3787 34.2871L68.3543 39.9L66.0712 37.6488C66.0712 37.6488 61.2858 36.0991 60.5734 38.4297C59.7941 40.9677 62.9113 40.7969 64.6587 41.4375Z" fill="#B2B2B2"/>
<path fill-rule="evenodd" clip-rule="evenodd" d="M75.0396 34.9414H83.0214L89.469 50.499L91.5817 52.5612H80.6957L82.443 50.8163L81.5419 48.4857H75.6789L74.9909 50.92L76.2025 52.5612H71.0273L72.7991 50.7858L77.0792 37.1256L75.0396 34.9414Z" fill="#B2B2B2"/>
<path fill-rule="evenodd" clip-rule="evenodd" d="M80.7501 46.0456L78.266 40.0117L76.3604 46.0456H80.7501Z" fill="white"/>
<path fill-rule="evenodd" clip-rule="evenodd" d="M48.7681 7.5054C49.0786 7.5054 49.3283 7.25526 49.3283 6.94411C49.3283 6.63295 49.0786 6.38281 48.7681 6.38281C48.4576 6.38281 48.208 6.63295 48.208 6.94411C48.208 7.25526 48.4576 7.5054 48.7681 7.5054Z" fill="#B2B2B2"/>
<path fill-rule="evenodd" clip-rule="evenodd" d="M34.4356 19.9801C34.6547 19.9801 34.8252 19.8032 34.8252 19.5897C34.8252 19.3761 34.6486 19.1992 34.4356 19.1992C34.2225 19.1992 34.0459 19.3761 34.0459 19.5897C34.0459 19.8032 34.2225 19.9801 34.4356 19.9801Z" fill="#B2B2B2"/>
<path fill-rule="evenodd" clip-rule="evenodd" d="M35.6231 21.9704C35.8422 21.9704 36.0127 21.7935 36.0127 21.5799C36.0127 21.3664 35.8361 21.1895 35.6231 21.1895C35.41 21.1895 35.2334 21.3664 35.2334 21.5799C35.2334 21.7935 35.41 21.9704 35.6231 21.9704Z" fill="#B2B2B2"/>
<path fill-rule="evenodd" clip-rule="evenodd" d="M39.0569 26.4603C39.1604 26.4603 39.2456 26.3749 39.2456 26.2712C39.2456 26.1674 39.1604 26.082 39.0569 26.082C38.9534 26.082 38.8682 26.1674 38.8682 26.2712C38.8682 26.3749 38.9534 26.4603 39.0569 26.4603Z" fill="#B2B2B2"/>
<path fill-rule="evenodd" clip-rule="evenodd" d="M43.4163 11.306C43.5198 11.306 43.605 11.2206 43.605 11.1169C43.605 11.0131 43.5198 10.9277 43.4163 10.9277C43.3128 10.9277 43.2275 11.0131 43.2275 11.1169C43.2275 11.2206 43.3128 11.306 43.4163 11.306Z" fill="#B2B2B2"/>
<path fill-rule="evenodd" clip-rule="evenodd" d="M42.8928 13.5505C43.0693 13.5505 43.2094 13.4102 43.2094 13.2333C43.2094 13.0563 43.0693 12.916 42.8928 12.916C42.7162 12.916 42.5762 13.0563 42.5762 13.2333C42.5762 13.4102 42.7162 13.5505 42.8928 13.5505Z" fill="#B2B2B2"/>
<path fill-rule="evenodd" clip-rule="evenodd" d="M49.4982 11.2986C49.6748 11.2986 49.8148 11.1582 49.8148 10.9813C49.8148 10.8044 49.6748 10.6641 49.4982 10.6641C49.3217 10.6641 49.1816 10.8044 49.1816 10.9813C49.1816 11.1582 49.3217 11.2986 49.4982 11.2986Z" fill="#B2B2B2"/>
<path fill-rule="evenodd" clip-rule="evenodd" d="M53.5285 13.6853C53.7051 13.6853 53.8451 13.545 53.8451 13.368C53.8451 13.1911 53.7051 13.0508 53.5285 13.0508C53.3519 13.0508 53.2119 13.1911 53.2119 13.368C53.2119 13.545 53.3519 13.6853 53.5285 13.6853Z" fill="#B2B2B2"/>
<path fill-rule="evenodd" clip-rule="evenodd" d="M80.5488 69.4735C80.9324 69.4735 81.249 69.1624 81.249 68.7719C81.249 68.3815 80.9384 68.0703 80.5488 68.0703C80.1591 68.0703 79.8486 68.3815 79.8486 68.7719C79.8486 69.1624 80.1591 69.4735 80.5488 69.4735Z" fill="#B2B2B2"/>
<path fill-rule="evenodd" clip-rule="evenodd" d="M80.1348 68.1975L80.5549 67.0078L80.9384 68.1853L80.1348 68.1975Z" fill="#B2B2B2"/>
<path fill-rule="evenodd" clip-rule="evenodd" d="M80.1348 69.3008L80.5549 70.4905L80.9384 69.313L80.1348 69.3008Z" fill="#B2B2B2"/>
<path fill-rule="evenodd" clip-rule="evenodd" d="M79.9831 69.204L78.7959 68.7769L79.9709 68.3926L79.9831 69.204Z" fill="#B2B2B2"/>
<path fill-rule="evenodd" clip-rule="evenodd" d="M81.1035 69.204L82.2968 68.7769L81.1218 68.3926L81.1035 69.204Z" fill="#B2B2B2"/>
<path fill-rule="evenodd" clip-rule="evenodd" d="M79.2884 59.7545C79.5381 59.7545 79.739 59.5532 79.739 59.303C79.739 59.0529 79.5381 58.8516 79.2884 58.8516C79.0388 58.8516 78.8379 59.0529 78.8379 59.303C78.8379 59.5532 79.0388 59.7545 79.2884 59.7545Z" fill="#B2B2B2"/>
<path fill-rule="evenodd" clip-rule="evenodd" d="M64.8226 78.0924C65.0722 78.0924 65.2731 77.8911 65.2731 77.6409C65.2731 77.3908 65.0722 77.1895 64.8226 77.1895C64.573 77.1895 64.3721 77.3908 64.3721 77.6409C64.3721 77.8911 64.573 78.0924 64.8226 78.0924Z" fill="#B2B2B2"/>
<path fill-rule="evenodd" clip-rule="evenodd" d="M48.1771 73.194C48.4267 73.194 48.6276 72.9926 48.6276 72.7425C48.6276 72.4924 48.4267 72.291 48.1771 72.291C47.9275 72.291 47.7266 72.4924 47.7266 72.7425C47.7266 72.9926 47.9275 73.194 48.1771 73.194Z" fill="#B2B2B2"/>
<path fill-rule="evenodd" clip-rule="evenodd" d="M32.5179 73.3287C32.7675 73.3287 32.9685 73.1274 32.9685 72.8773C32.9685 72.6271 32.7675 72.4258 32.5179 72.4258C32.2683 72.4258 32.0674 72.6271 32.0674 72.8773C32.0674 73.1274 32.2683 73.3287 32.5179 73.3287Z" fill="#B2B2B2"/>
<path fill-rule="evenodd" clip-rule="evenodd" d="M34.3022 63.0471C34.4666 63.0471 34.6006 62.9129 34.6006 62.7482C34.6006 62.5834 34.4666 62.4492 34.3022 62.4492C34.1378 62.4492 34.0039 62.5834 34.0039 62.7482C34.0039 62.9129 34.1378 63.0471 34.3022 63.0471Z" fill="#B2B2B2"/>
<path fill-rule="evenodd" clip-rule="evenodd" d="M28.9507 66.7581C29.1151 66.7581 29.249 66.6238 29.249 66.4591C29.249 66.2944 29.1151 66.1602 28.9507 66.1602C28.7863 66.1602 28.6523 66.2944 28.6523 66.4591C28.6523 66.6238 28.7863 66.7581 28.9507 66.7581Z" fill="#B2B2B2"/>
<path fill-rule="evenodd" clip-rule="evenodd" d="M35.4282 54.5061C35.5926 54.5061 35.7265 54.3719 35.7265 54.2072C35.7265 54.0424 35.5926 53.9082 35.4282 53.9082C35.2638 53.9082 35.1299 54.0424 35.1299 54.2072C35.1299 54.3719 35.2638 54.5061 35.4282 54.5061Z" fill="#B2B2B2"/>
<path fill-rule="evenodd" clip-rule="evenodd" d="M16.9321 63.1819C17.0965 63.1819 17.2304 63.0477 17.2304 62.8829C17.2304 62.7182 17.0965 62.584 16.9321 62.584C16.7677 62.584 16.6338 62.7182 16.6338 62.8829C16.6338 63.0477 16.7677 63.1819 16.9321 63.1819Z" fill="#B2B2B2"/>
<path fill-rule="evenodd" clip-rule="evenodd" d="M21.8813 63.6448C22.0457 63.6448 22.1797 63.5106 22.1797 63.3458C22.1797 63.1811 22.0457 63.0469 21.8813 63.0469C21.717 63.0469 21.583 63.1811 21.583 63.3458C21.583 63.5106 21.717 63.6448 21.8813 63.6448Z" fill="#B2B2B2"/>
<path fill-rule="evenodd" clip-rule="evenodd" d="M20.9559 66.0743C21.2543 66.0743 21.4978 65.8302 21.4978 65.5313C21.4978 65.2323 21.2543 64.9883 20.9559 64.9883C20.6576 64.9883 20.4141 65.2323 20.4141 65.5313C20.4141 65.8302 20.6576 66.0743 20.9559 66.0743Z" fill="#B2B2B2"/>
<path fill-rule="evenodd" clip-rule="evenodd" d="M22.6796 68.125C22.9779 68.125 23.2214 67.881 23.2214 67.5821C23.2214 67.2831 22.9779 67.0391 22.6796 67.0391C22.3812 67.0391 22.1377 67.2831 22.1377 67.5821C22.1377 67.881 22.3812 68.125 22.6796 68.125Z" fill="#B2B2B2"/>
<path fill-rule="evenodd" clip-rule="evenodd" d="M91.5143 17.1988C99.8005 10.3534 106.62 4.46595 109.018 0C109.018 0 103.758 17.6381 79.1853 36.0631C79.1853 36.0631 41.6627 61.724 31.4099 68.9232C31.4099 68.9232 21.9486 75.6222 13.9181 86L13.7354 84.3039C13.7354 84.3039 19.7507 75.433 33.4495 65.7446C45.4984 57.2215 49.9916 54.3601 49.9916 54.3601C49.9916 54.3601 78.613 36.4109 84.5248 28.5955C84.5248 28.5955 63.9949 40.4071 28.5849 47.2646C28.5849 47.2646 12.2011 51.395 1.4978 58.0939H0.0244141C0.0244141 58.0939 9.36397 50.1382 31.0325 43.9701C31.0325 43.9701 67.6966 33.0614 91.5143 17.1988Z" fill="#8E8E8E"/>
<path fill-rule="evenodd" clip-rule="evenodd" d="M12.3654 35.0078H19.7628L26.1069 45.7029V36.3317L24.944 35.0078H29.5955L28.4326 36.8076V50.7362L30.1191 52.5849H22.7217L16.3959 41.6091V50.7973L17.7536 52.6154H12.1523L13.7353 50.6813V37.1249L12.3654 35.0078Z" fill="#B2B2B2"/>
<path fill-rule="evenodd" clip-rule="evenodd" d="M37.0173 34.9766H45.194L51.051 50.5342L53.1637 52.5963H42.6734L44.4147 50.8514L43.5197 48.5208H37.6505L37.2974 50.9551L38.509 52.5963H32.999L34.9717 50.827L39.0509 37.1607L37.0173 34.9766Z" fill="#B2B2B2"/>
<path fill-rule="evenodd" clip-rule="evenodd" d="M42.7286 46.0869L40.2384 40.0469L38.3389 46.0869H42.7286Z" fill="white"/>
<path fill-rule="evenodd" clip-rule="evenodd" d="M39.9519 41.0717L40.579 40.8398L41.9671 44.2442L38.6611 45.0739L39.9519 41.0717Z" fill="#8E8E8E"/>
<path fill-rule="evenodd" clip-rule="evenodd" d="M55.2766 42.2609C55.2766 42.2609 53.4257 37.2276 58.9783 35.379C58.9783 35.379 61.6207 33.2619 67.1672 35.379L68.3849 34.293V39.9059C68.3849 39.9059 65.846 37.2337 64.0012 36.9652C62.1504 36.7029 60.2995 37.2276 60.5674 39.8754L55.2827 42.2609H55.2766Z" fill="#B2B2B2"/>
<path d="M59.4531 68.7215C62.1746 70.3322 64.7926 71.3389 67.094 71.65C69.2798 71.9429 71.1732 71.6073 72.5675 70.5579C72.7501 70.4237 72.9267 70.2712 73.0911 70.1125C79.6665 63.8285 71.8247 43.085 59.5992 30.2363V30.2241C59.5992 30.2241 58.4546 28.9124 57.6875 28.1375L58.0954 27.7227C58.826 28.4548 59.9098 29.7055 60.0133 29.8275C72.4274 42.8715 80.2753 64.0359 73.4868 70.5274C73.3102 70.6983 73.1154 70.863 72.9084 71.0155C71.3863 72.1686 69.3467 72.5347 67.0088 72.2235C64.6282 71.9002 61.9372 70.8691 59.1487 69.2157L59.4409 68.7154L59.4531 68.7215Z" fill="#B2B2B2"/>
<path d="M58.996 29.6212C58.8925 29.4992 58.8012 29.3894 58.7221 29.2978C58.6186 29.1758 58.5272 29.0721 58.4481 28.9745C52.5485 22.1169 47.4282 17.956 43.1115 15.778C38.0825 13.2461 34.1616 13.423 31.3731 15.1862C28.9621 16.7114 28.0489 21.1225 29.6745 27.8824C31.0444 33.593 34.2286 40.9447 39.8421 49.6081V49.5959C39.8421 49.5959 44.9867 56.728 45.5529 57.1551L45.1572 57.6798C44.5057 57.1917 39.3124 50.0047 39.3002 49.9803V49.9681C33.6258 41.2314 30.4173 33.8126 29.0291 28.0349C27.3305 20.9638 28.3777 16.2966 31.02 14.6249C33.9911 12.7458 38.1373 12.5322 43.4037 15.1862C47.7935 17.4008 52.9807 21.6167 58.9413 28.5413C59.0448 28.6633 59.1361 28.7732 59.2213 28.8647C59.3248 28.9867 59.4161 29.0965 59.4953 29.188L58.99 29.6151L58.996 29.6212Z" fill="#B2B2B2"/>
<path fill-rule="evenodd" clip-rule="evenodd" d="M48.6705 62.7238C49.9551 63.8281 51.3676 64.2918 51.8242 63.7549C52.2809 63.218 51.6111 61.8941 50.3265 60.7898C49.0418 59.6855 47.6293 59.2218 47.1727 59.7587C46.7161 60.2895 47.3858 61.6195 48.6705 62.7238Z" fill="#B2B2B2"/>
<path fill-rule="evenodd" clip-rule="evenodd" d="M60.7378 8.90724C61.2188 8.90724 61.6085 8.51678 61.6085 8.0348C61.6085 7.55282 61.2188 7.15625 60.7378 7.15625C60.2568 7.15625 59.8672 7.54672 59.8672 8.0348C59.8672 8.52288 60.2568 8.90724 60.7378 8.90724Z" fill="#B2B2B2"/>
<path fill-rule="evenodd" clip-rule="evenodd" d="M60.2139 7.31539L60.7436 4.23438L61.2245 7.29709L60.2139 7.31539Z" fill="#B2B2B2"/>
<path fill-rule="evenodd" clip-rule="evenodd" d="M60.2139 8.69336L60.7436 11.7744L61.2245 8.71166L60.2139 8.69336Z" fill="#B2B2B2"/>
<path fill-rule="evenodd" clip-rule="evenodd" d="M60.0257 8.57136L56.8232 8.04057L60.0075 7.55859L60.0257 8.57136Z" fill="#B2B2B2"/>
<path fill-rule="evenodd" clip-rule="evenodd" d="M61.4258 8.57136L64.7622 8.04057L61.444 7.55859L61.4258 8.57136Z" fill="#B2B2B2"/>
<path fill-rule="evenodd" clip-rule="evenodd" d="M39.2886 21.2803C39.7696 21.2803 40.1653 20.8898 40.1653 20.4017C40.1653 19.9137 39.7757 19.5293 39.2886 19.5293C38.8015 19.5293 38.418 19.9198 38.418 20.4017C38.418 20.8837 38.8076 21.2803 39.2886 21.2803Z" fill="#B2B2B2"/>
<path fill-rule="evenodd" clip-rule="evenodd" d="M38.7705 19.6884L39.3002 16.6074L39.7751 19.6701L38.7705 19.6884Z" fill="#B2B2B2"/>
<path fill-rule="evenodd" clip-rule="evenodd" d="M38.7705 21.0664L39.3002 24.1474L39.7751 21.0847L38.7705 21.0664Z" fill="#B2B2B2"/>
<path fill-rule="evenodd" clip-rule="evenodd" d="M38.5816 20.9442L35.373 20.4134L38.5633 19.9375L38.5816 20.9442Z" fill="#B2B2B2"/>
<path fill-rule="evenodd" clip-rule="evenodd" d="M39.9824 20.9442L43.3188 20.4134L40.0007 19.9375L39.9824 20.9442Z" fill="#B2B2B2"/>
<path fill-rule="evenodd" clip-rule="evenodd" d="M34.4419 79.4715C34.9229 79.4715 35.3126 79.081 35.3126 78.599C35.3126 78.117 34.9229 77.7266 34.4419 77.7266C33.9609 77.7266 33.5713 78.117 33.5713 78.599C33.5713 79.081 33.9609 79.4715 34.4419 79.4715Z" fill="#B2B2B2"/>
<path fill-rule="evenodd" clip-rule="evenodd" d="M33.9248 77.8798L34.4545 74.7988L34.9294 77.8615L33.9248 77.8798Z" fill="#B2B2B2"/>
<path fill-rule="evenodd" clip-rule="evenodd" d="M33.9248 79.2578L34.4545 82.3388L34.9294 79.2761L33.9248 79.2578Z" fill="#B2B2B2"/>
<path fill-rule="evenodd" clip-rule="evenodd" d="M33.7359 79.1356L30.5273 78.6048L33.7176 78.1289L33.7359 79.1356Z" fill="#B2B2B2"/>
<path fill-rule="evenodd" clip-rule="evenodd" d="M35.1357 79.1356L38.4722 78.6048L35.154 78.1289L35.1357 79.1356Z" fill="#B2B2B2"/>
<path fill-rule="evenodd" clip-rule="evenodd" d="M84.7808 59.6143C85.2618 59.6143 85.6514 59.2238 85.6514 58.7357C85.6514 58.2476 85.2618 57.8633 84.7808 57.8633C84.2998 57.8633 83.9102 58.2537 83.9102 58.7357C83.9102 59.2177 84.2998 59.6143 84.7808 59.6143Z" fill="#B2B2B2"/>
<path fill-rule="evenodd" clip-rule="evenodd" d="M84.2627 58.0205L84.7863 54.9395L85.2673 58.0022L84.2627 58.0205Z" fill="#B2B2B2"/>
<path fill-rule="evenodd" clip-rule="evenodd" d="M84.2627 59.3984L84.7863 62.4795L85.2673 59.4167L84.2627 59.3984Z" fill="#B2B2B2"/>
<path fill-rule="evenodd" clip-rule="evenodd" d="M84.0687 59.2784L80.8662 58.7476L84.0565 58.2656L84.0687 59.2784Z" fill="#B2B2B2"/>
<path fill-rule="evenodd" clip-rule="evenodd" d="M85.4746 59.2784L88.811 58.7476L85.4929 58.2656L85.4746 59.2784Z" fill="#B2B2B2"/>
</svg>
