<svg width="80" height="19" viewBox="0 0 80 19" fill="none" xmlns="http://www.w3.org/2000/svg">
<g clip-path="url(#clip0_1140_7138)">
<path fill-rule="evenodd" clip-rule="evenodd" d="M6.98017 4.47165H12.4508C15.382 4.47165 16.4875 5.92699 16.3169 8.06976C16.0389 11.6059 13.8596 13.5567 10.9663 13.5567H9.50702C9.10904 13.5567 8.87533 13.8168 8.73635 14.5166L8.10464 18.5668C8.06042 18.8269 7.92144 18.9817 7.71298 19.0003H4.28283C3.96065 19.0003 3.84691 18.7588 3.92903 18.2324L6.02003 5.22719C6.02836 5.1142 6.06034 5.00411 6.11403 4.9038C6.16773 4.80349 6.24199 4.71511 6.33211 4.6442C6.42223 4.57329 6.52627 4.52137 6.63779 4.49168C6.7493 4.46199 6.86584 4.45517 6.98017 4.47165Z" fill="#009DE2"/>
<path fill-rule="evenodd" clip-rule="evenodd" d="M30.7139 4.23047C32.5585 4.23047 34.2642 5.21515 34.0304 7.65517C33.7525 10.5535 32.1353 12.1698 29.6526 12.176H27.4669C27.1511 12.176 26.9995 12.4299 26.9174 12.9439L26.4941 15.5822C26.4309 15.9847 26.2225 16.2015 25.913 16.2015H23.9104C23.5819 16.2015 23.4682 16.0033 23.544 15.545L25.1738 4.94266C25.2623 4.42245 25.4644 4.23047 25.8055 4.23047H30.7139ZM27.3975 9.89082H29.0589C30.0949 9.85367 30.7834 9.14767 30.8529 7.87811C30.8681 7.69921 30.8435 7.5192 30.7807 7.35055C30.7179 7.18191 30.6185 7.02867 30.4893 6.90143C30.3601 6.77419 30.2042 6.676 30.0325 6.61367C29.8608 6.55133 29.6773 6.52635 29.4947 6.54043H27.9344L27.3975 9.88462V9.89082ZM39.5642 15.3654C39.7474 15.2044 39.9369 15.1177 39.9116 15.322L39.8485 15.8113C39.8106 16.0652 39.918 16.2015 40.158 16.2015H41.9647C42.2679 16.2015 42.4196 16.0838 42.4954 15.6193L43.6072 8.7637C43.6641 8.41689 43.6072 8.24969 43.3166 8.24969H41.3267C41.1435 8.24969 41.0613 8.34878 41.0108 8.61508L40.935 9.03619C40.8971 9.25914 40.796 9.2963 40.7013 9.07335C40.3601 8.29304 39.5011 7.94005 38.2945 7.96482C35.5023 8.02056 33.6262 10.0952 33.424 12.7582C33.3687 13.2191 33.4135 13.6862 33.5556 14.1289C33.6976 14.5715 33.9337 14.9797 34.2481 15.3266C34.5626 15.6735 34.9483 15.9512 35.3801 16.1415C35.8118 16.3317 36.2797 16.4303 36.7531 16.4306C37.2724 16.4639 37.793 16.3859 38.2785 16.202C38.764 16.018 39.2028 15.7325 39.5642 15.3654ZM38.0481 14.3126C37.7745 14.3278 37.5009 14.2822 37.2478 14.1792C36.9947 14.0762 36.7686 13.9185 36.5864 13.7178C36.4041 13.5171 36.2705 13.2787 36.1955 13.0203C36.1204 12.7619 36.1059 12.4902 36.153 12.2256C36.2624 11.6441 36.574 11.1178 37.0347 10.7361C37.4954 10.3545 38.0767 10.1412 38.6798 10.1324C38.9515 10.1218 39.2221 10.1711 39.4718 10.2765C39.7215 10.382 39.9438 10.5409 40.1226 10.7417C40.3014 10.9425 40.432 11.18 40.5048 11.4368C40.5776 11.6936 40.5908 11.9631 40.5433 12.2256C40.4337 12.8064 40.1219 13.332 39.6611 13.7126C39.2003 14.0932 38.619 14.3053 38.0165 14.3126H38.0481ZM47.1511 8.22492H45.3254C44.9464 8.22492 44.7948 8.49741 44.9148 8.84421L47.189 15.384L44.9464 18.4805C44.7569 18.7406 44.9022 18.9759 45.1675 18.9759H47.2269C47.3504 18.993 47.4762 18.9739 47.5886 18.921C47.7011 18.8681 47.795 18.7838 47.8586 18.6786L54.8643 8.84421C55.0791 8.54076 54.978 8.22492 54.6242 8.22492H52.6786C52.5453 8.22686 52.4153 8.26568 52.3035 8.3369C52.1917 8.40811 52.1028 8.50883 52.0469 8.62745L49.122 12.7829L47.8586 8.62127C47.8404 8.54872 47.8074 8.48053 47.7615 8.42088C47.7156 8.36124 47.6577 8.31137 47.5916 8.2743C47.5254 8.23723 47.4522 8.21373 47.3765 8.20524C47.3008 8.19675 47.2241 8.20345 47.1511 8.22492Z" fill="#113984"/>
<path fill-rule="evenodd" clip-rule="evenodd" d="M62.1352 4.23047C63.9798 4.23047 65.6791 5.21515 65.4517 7.65517C65.1737 10.5535 63.5565 12.1698 61.0739 12.176H58.8882C58.5723 12.176 58.4207 12.4299 58.3386 12.9439L57.9153 15.5822C57.8522 15.9847 57.6438 16.2015 57.3342 16.2015H55.3C54.9716 16.2015 54.8579 16.0033 54.9337 15.545L56.6141 4.96743C56.6962 4.44722 56.9046 4.25523 57.2458 4.25523L62.1352 4.23047ZM58.8187 9.89082H60.4801C61.5161 9.85367 62.2047 9.14767 62.2742 7.87811C62.2894 7.69921 62.2648 7.5192 62.202 7.35055C62.1392 7.18191 62.0398 7.02867 61.9106 6.90143C61.7814 6.77419 61.6255 6.676 61.4538 6.61367C61.282 6.55133 61.0985 6.52635 60.916 6.54043H59.3557L58.8187 9.88462V9.89082ZM70.9855 15.3654C71.1687 15.2044 71.3582 15.1177 71.3329 15.322L71.2634 15.8113C71.2634 16.0652 71.3329 16.2015 71.5793 16.2015H73.386C73.6892 16.2015 73.8408 16.0838 73.9167 15.6193L75.0285 8.7637C75.0853 8.41689 75.0284 8.24969 74.7315 8.24969H72.748C72.5648 8.24969 72.4764 8.34878 72.4321 8.61508L72.3563 9.03619C72.3184 9.25914 72.2173 9.2963 72.1225 9.07335C71.7814 8.29304 70.9223 7.94005 69.7158 7.96482C66.9236 8.02056 65.0474 10.0952 64.8453 12.7582C64.79 13.2191 64.8348 13.6862 64.9768 14.1289C65.1189 14.5715 65.3549 14.9797 65.6694 15.3266C65.9838 15.6735 66.3696 15.9512 66.8013 16.1415C67.2331 16.3317 67.701 16.4303 68.1743 16.4306C68.6937 16.4639 69.2143 16.3859 69.6998 16.202C70.1853 16.018 70.624 15.7325 70.9855 15.3654ZM69.4694 14.3126C69.1984 14.323 68.9284 14.2738 68.6793 14.1687C68.4301 14.0636 68.2081 13.9052 68.0294 13.7052C67.8508 13.5051 67.72 13.2684 67.6467 13.0124C67.5734 12.7564 67.5595 12.4875 67.6059 12.2256C67.7142 11.6436 68.0254 11.1166 68.4863 10.7348C68.9473 10.3529 69.5293 10.14 70.1327 10.1324C70.4044 10.1218 70.675 10.1711 70.9247 10.2765C71.1743 10.382 71.3967 10.5409 71.5755 10.7417C71.7543 10.9425 71.8849 11.18 71.9577 11.4368C72.0305 11.6936 72.0436 11.9631 71.9962 12.2256C71.8866 12.8064 71.5748 13.332 71.114 13.7126C70.6532 14.0932 70.0719 14.3053 69.4694 14.3126ZM77.8143 16.2138H75.7107C75.6732 16.2163 75.6357 16.2104 75.6009 16.1965C75.5661 16.1826 75.535 16.1611 75.51 16.1336C75.4851 16.1061 75.4668 16.0734 75.4567 16.0379C75.4466 16.0024 75.4448 15.9652 75.4517 15.929L77.29 4.54012C77.3059 4.46082 77.349 4.38925 77.4123 4.3374C77.4755 4.28555 77.555 4.25655 77.6374 4.25523H79.722C79.7592 4.2539 79.7962 4.26064 79.8304 4.27494C79.8646 4.28924 79.8952 4.31076 79.9199 4.33797C79.9447 4.36518 79.9629 4.39739 79.9735 4.43233C79.9841 4.46728 79.9867 4.50409 79.9811 4.54012L78.1428 15.929C78.1277 16.0053 78.0873 16.0746 78.0279 16.1261C77.9685 16.1776 77.8934 16.2084 77.8143 16.2138Z" fill="#009DE2"/>
<path fill-rule="evenodd" clip-rule="evenodd" d="M3.56277 -0.000652716H9.03335C10.5747 -0.000652716 12.4067 0.0488962 13.6259 1.10789C14.0456 1.49079 14.3682 1.96462 14.5678 2.49152C14.7675 3.01841 14.8386 3.58377 14.7757 4.14244C14.4409 8.24218 11.9392 10.5336 8.58485 10.5336H5.88743C5.42628 10.5336 5.12312 10.837 4.99677 11.6421L4.23867 16.3426C4.19445 16.646 4.05552 16.8256 3.80915 16.8442H0.442078C0.0693678 16.8442 -0.0633072 16.5655 0.0314496 15.9586L2.45728 0.891135C2.46473 0.759435 2.49997 0.630683 2.56077 0.513014C2.62156 0.395346 2.70656 0.291316 2.81046 0.207505C2.91435 0.123695 3.03484 0.0619193 3.16433 0.02609C3.29382 -0.00973935 3.42951 -0.0188418 3.56277 -0.000652716Z" fill="#113984"/>
<path fill-rule="evenodd" clip-rule="evenodd" d="M5.07227 11.1714L6.02608 5.23858C6.03283 5.12512 6.06349 5.01426 6.11607 4.91296C6.16866 4.81167 6.24208 4.72215 6.33168 4.65002C6.42128 4.57789 6.52508 4.52472 6.63666 4.49385C6.74824 4.46298 6.86513 4.45508 6.97997 4.47066H12.4506C13.2061 4.44485 13.9583 4.58009 14.6553 4.86702C14.1057 8.50848 11.7052 10.5336 8.55293 10.5336H5.85558C5.49551 10.5336 5.23019 10.7132 5.07227 11.1714Z" fill="#172C70"/>
</g>
<defs>
<clipPath id="clip0_1140_7138">
<rect width="80" height="19" fill="white"/>
</clipPath>
</defs>
</svg>
