<svg width="260" height="54" viewBox="0 0 260 54" fill="none" xmlns="http://www.w3.org/2000/svg">
<g clip-path="url(#clip0_1360_10746)">
<path d="M209.815 31.7072V17.1611H212.284V37.6743L197.392 22.3085V36.9294H194.923V16.2666L209.815 31.7072Z" fill="#B2B2B2"/>
<path d="M248.042 16.7328C256.066 16.2825 261.596 24.8691 257.8 31.978C253.995 39.1022 243.373 39.1755 239.466 32.0986C235.757 25.3774 240.432 17.1587 248.042 16.7313V16.7328ZM248.268 19.0455C241.854 19.2744 238.509 26.5818 242.16 31.7277C245.082 35.8477 251.202 36.2003 254.533 32.3765C259.124 27.107 255.41 18.7905 248.268 19.0455Z" fill="#B2B2B2"/>
<path d="M235.447 26.9321C235.555 26.9978 235.55 27.0802 235.564 27.1901C236.11 31.8307 232.694 36.3278 228.153 37.1918C219.149 38.9045 212.888 28.7487 217.912 21.2398C221.742 15.5139 230.222 15.2147 234.498 20.5544L232.717 22.232C228.569 16.4023 219.391 18.9928 218.647 26.0742C218.059 31.6765 223.67 37.0895 229.174 34.4044C231.086 33.4717 232.772 31.4353 232.79 29.2433H227.701V27.042L227.813 26.9306H235.446L235.447 26.9321Z" fill="#B2B2B2"/>
<path d="M191.558 36.9273H188.864L186.57 32.0165L177.599 31.9997L175.32 36.9288H172.626L182.094 16.3408L191.561 36.9288L191.558 36.9273ZM185.57 29.6916L182.091 21.7843L178.611 29.6916H185.572H185.57Z" fill="#B2B2B2"/>
<path d="M113.125 36.9273H110.431L108.137 32.0165L99.1651 31.9997L96.8863 36.9288H94.1924L103.695 16.3408L113.126 36.9288L113.125 36.9273ZM107.138 29.6916L103.695 21.7843L100.179 29.6916H107.14H107.138Z" fill="#B2B2B2"/>
<path d="M26.2231 21.2104C30.7302 21.0044 33.7825 25.8632 31.5649 29.8169C29.3473 33.7705 23.0804 33.6423 21.212 29.2948C19.6239 25.6007 22.1845 21.3951 26.2231 21.2104Z" fill="#B2B2B2"/>
<path d="M147.402 17.1592V19.397H139.169V24.9169H147.102V27.2295H139.169V34.6896H147.402V36.9274H136.7V17.1592H147.402Z" fill="#B2B2B2"/>
<path d="M77.5031 19.7689L75.5244 20.8939C75.0343 20.0376 74.2334 19.3399 73.2425 19.1323C69.936 18.4408 67.2007 22.0556 70.521 24.0828C72.319 25.1804 74.4723 25.4139 76.1921 26.8595C79.4067 29.5645 78.5246 34.8889 74.8261 36.6826C70.7645 38.6518 66.118 36.2765 65.6846 31.784L68.1503 31.3322C68.1181 34.1944 71.3434 35.9789 73.8137 34.5531C75.2028 33.7502 75.8108 32.2008 75.627 30.633C75.1737 26.7633 67.0353 27.4136 66.5805 22.4937C66.0108 16.3129 74.9516 14.6291 77.5046 19.7704L77.5031 19.7689Z" fill="#B2B2B2"/>
<path d="M83.0416 17.1598C87.2807 17.1628 93.5614 16.5659 93.8968 22.3407C94.0637 25.2075 92.7436 27.4286 89.9425 28.2529C88.4799 28.6834 87.0265 28.6772 85.5103 28.6467V36.9265H83.04V17.1598H83.0416ZM85.5119 26.4089C88.0358 26.5096 91.4188 26.3249 91.5766 23.0933C91.7496 19.5518 88.218 19.2785 85.5119 19.3976V26.4089Z" fill="#B2B2B2"/>
<path d="M130.19 20.8901C130.147 20.9404 129.396 20.3314 129.285 20.2627C125.011 17.5516 119.344 19.3895 117.615 24.1339C115.006 31.2932 122.328 37.8618 129.014 33.9295L130.189 33.1235V35.9201C125.466 38.8051 119.107 37.239 116.163 32.5938C113.22 27.9486 114.405 22.2578 118.479 19.0262C121.724 16.4525 126.597 15.8877 130.189 18.092V20.8885L130.19 20.8901Z" fill="#B2B2B2"/>
<path d="M172.473 17.1611V19.399H167.459V36.9294H164.914V19.399H159.899V17.1611H172.473Z" fill="#B2B2B2"/>
<path d="M11.1788 23.0739C16.9097 22.387 17.2405 30.8301 11.9032 30.9614C6.8845 31.085 6.46793 23.6387 11.1788 23.0739Z" fill="#B2B2B2"/>
<path d="M40.5911 23.0723C46.3051 22.3472 46.7155 30.8285 41.317 30.9613C36.3274 31.0834 35.9262 23.663 40.5911 23.0723Z" fill="#B2B2B2"/>
<path d="M33.4822 35.7556C38.7643 35.2595 39.3646 43.2279 34.2081 43.64C29.0255 44.0537 28.3272 36.2395 33.4822 35.7556Z" fill="#B2B2B2"/>
<path d="M33.7862 10.3149C38.8079 10.1928 39.1985 17.7567 34.3589 18.2024C28.7154 18.7245 28.4627 10.4432 33.7862 10.3149Z" fill="#B2B2B2"/>
<path d="M18.7369 35.7532C23.9899 35.1762 24.702 43.2346 19.4628 43.6376C14.2236 44.0406 13.5803 36.318 18.7369 35.7532Z" fill="#B2B2B2"/>
<path d="M19.0403 10.315C24.0896 10.1913 24.4832 17.7536 19.6131 18.2024C14.0063 18.7214 13.7827 10.4417 19.0403 10.315Z" fill="#B2B2B2"/>
<path d="M5.47175 36.8955C8.76599 36.8955 8.09366 42.052 4.89284 41.2338C2.47155 40.6141 2.83911 36.8955 5.47175 36.8955Z" fill="#B2B2B2"/>
<path d="M5.03905 12.7033C8.13573 12.2179 8.59671 16.7531 5.76192 17.0783C2.83064 17.4141 2.40182 13.117 5.03905 12.7033Z" fill="#B2B2B2"/>
<path d="M47.0987 12.701C50.5338 12.1545 50.5522 17.4073 47.3131 17.076C44.7326 16.8119 44.78 13.0705 47.0987 12.701Z" fill="#B2B2B2"/>
<path d="M26.0728 0.619504C29.4053 0.134075 29.5355 4.92425 26.569 4.99294C23.823 5.05553 23.5168 0.991971 26.0728 0.619504Z" fill="#B2B2B2"/>
<path d="M12.7931 7.58676C10.7975 5.60231 13.7411 2.43328 15.8744 4.404C18.0078 6.37472 14.9004 9.68266 12.7931 7.58676Z" fill="#B2B2B2"/>
<path d="M26.1464 49.0301C28.8725 48.6622 29.7163 52.4357 27.2521 53.2661C24.1233 54.3209 23.1309 49.4376 26.1464 49.0301Z" fill="#B2B2B2"/>
<path d="M38.3463 3.82626C41.3434 3.43395 41.714 7.87761 38.9925 8.1997C35.9816 8.55538 35.5804 4.18957 38.3463 3.82626Z" fill="#B2B2B2"/>
<path d="M47.5428 36.882C50.4634 36.8484 50.4128 41.3455 47.5306 41.3272C44.7325 41.3104 44.5901 36.9156 47.5428 36.882Z" fill="#B2B2B2"/>
<path d="M14.1759 45.7506C17.0306 45.4896 17.3721 49.805 14.7441 50.1241C11.5571 50.5103 11.312 46.0117 14.1759 45.7506Z" fill="#B2B2B2"/>
<path d="M50.6201 24.7897C53.5008 24.5271 53.8745 28.9067 51.0473 29.1692C48.0625 29.4455 47.7317 25.0522 50.6201 24.7897Z" fill="#B2B2B2"/>
<path d="M38.4186 45.7508C41.2748 45.4455 41.7037 49.7761 39.0649 50.1242C35.8824 50.5455 35.5991 46.0515 38.4186 45.7508Z" fill="#B2B2B2"/>
<path d="M2.05138 24.7886C4.88618 24.5657 5.27364 28.9147 2.47714 29.1696C-0.579722 29.449 -0.84467 25.016 2.05138 24.7886Z" fill="#B2B2B2"/>
</g>
<defs>
<clipPath id="clip0_1360_10746">
<rect width="259" height="52.8308" fill="white" transform="translate(0.0244141 0.584961)"/>
</clipPath>
</defs>
</svg>
