<svg width="29" height="29" viewBox="0 0 29 29" fill="none" xmlns="http://www.w3.org/2000/svg">
<path d="M14.139 28.278C21.9478 28.278 28.278 21.9478 28.278 14.139C28.278 6.33025 21.9478 0 14.139 0C6.33025 0 0 6.33025 0 14.139C0 21.9478 6.33025 28.278 14.139 28.278Z" fill="white"/>
<path d="M15.3375 13.149L20.0248 7.69629H18.9153L14.845 12.4311L11.5936 7.69629H7.84375L12.7624 14.8518L7.84375 20.5656H8.95327L13.2549 15.5698L16.6903 20.5656H20.4401L15.3375 13.143V13.149ZM13.8186 14.9171L13.3202 14.2051L9.35673 8.53288H11.0655L14.2636 13.1074L14.762 13.8194L18.9212 19.7705H17.2124L13.8186 14.9171Z" fill="#051D40"/>
</svg>
