<svg width="21" height="21" viewBox="0 0 21 21" fill="none" xmlns="http://www.w3.org/2000/svg">
<path d="M10.6641 10.334C11.9901 10.334 13.2619 9.8072 14.1996 8.86952C15.1373 7.93184 15.6641 6.66007 15.6641 5.33398C15.6641 4.0079 15.1373 2.73613 14.1996 1.79845C13.2619 0.860769 11.9901 0.333984 10.6641 0.333984C9.33798 0.333984 8.06621 0.860769 7.12853 1.79845C6.19085 2.73613 5.66406 4.0079 5.66406 5.33398C5.66406 6.66007 6.19085 7.93184 7.12853 8.86952C8.06621 9.8072 9.33798 10.334 10.6641 10.334ZM13.9974 5.33398C13.9974 6.21804 13.6462 7.06589 13.0211 7.69101C12.396 8.31613 11.5481 8.66732 10.6641 8.66732C9.78001 8.66732 8.93216 8.31613 8.30704 7.69101C7.68192 7.06589 7.33073 6.21804 7.33073 5.33398C7.33073 4.44993 7.68192 3.60208 8.30704 2.97696C8.93216 2.35184 9.78001 2.00065 10.6641 2.00065C11.5481 2.00065 12.396 2.35184 13.0211 2.97696C13.6462 3.60208 13.9974 4.44993 13.9974 5.33398ZM20.6641 18.6673C20.6641 20.334 18.9974 20.334 18.9974 20.334H2.33073C2.33073 20.334 0.664062 20.334 0.664062 18.6673C0.664062 17.0007 2.33073 12.0007 10.6641 12.0007C18.9974 12.0007 20.6641 17.0007 20.6641 18.6673ZM18.9974 18.6607C18.9957 18.2507 18.7407 17.0173 17.6107 15.8873C16.5241 14.8007 14.4791 13.6673 10.6641 13.6673C6.84906 13.6673 4.80406 14.8007 3.7174 15.8873C2.5874 17.0173 2.33406 18.2507 2.33073 18.6607H18.9974Z" fill="white"/>
</svg>
