<svg width="70" height="62" viewBox="0 0 70 62" fill="none" xmlns="http://www.w3.org/2000/svg">
<path d="M55.7987 43.7635L35.3466 35.6331L14.4814 43.7635V30.542L34.9996 21.6289L55.7987 30.1894V43.7635Z" fill="#B2B2B2"/>
<path d="M55.7987 8.85893V22.9619L35.3466 14.6341L14.4814 22.9619V9.38779L35.3466 0.774414L55.7987 8.85893Z" fill="#B2B2B2"/>
<path d="M43.4033 61.0399V52.9307H49.3943C50.0967 52.9307 50.9602 54.0166 51.047 54.6477C51.1875 55.6525 50.1091 56.3788 50.1132 56.6397C50.1215 56.9218 51.456 57.6234 51.5593 58.4414C51.9519 61.4982 45.6303 61.0998 43.4033 61.0399ZM45.4692 56.1038C49.9976 56.6362 49.9852 53.805 45.4692 54.3374V56.1038ZM45.4692 59.277C50.5553 59.8552 50.5429 56.9324 45.4692 57.5106V59.277Z" fill="#B2B2B2"/>
<path d="M13.56 52.6485C20.0014 51.887 21.088 60.2606 15.0722 61.0186C8.36643 61.8613 7.255 53.3924 13.56 52.6485ZM13.5435 54.4043C10.5232 54.9473 10.8248 59.9997 15.0061 59.2029C18.1958 58.5964 17.1092 53.7626 13.5435 54.4043Z" fill="#B2B2B2"/>
<path d="M61.1699 52.9308C64.0869 52.7933 69.4995 52.4583 68.607 56.2697C68.417 57.0841 67.3923 57.3732 67.3716 58.0325C67.3427 58.9563 69.0285 59.9505 69.0243 60.8602C66.3883 62.2105 65.9503 58.2123 64.2728 58.2018L63.3019 58.8011L63.2399 61.04H61.1699V52.9273V52.9308ZM63.2358 56.8091C64.3968 56.8303 65.6322 57.0171 66.3511 56.1075C67.2559 54.6126 64.5207 54.1683 63.2358 54.3376V56.8091Z" fill="#B2B2B2"/>
<path d="M59.518 52.9307V54.3374H54.969V56.1038L59.1089 56.2801L59.1048 57.5106L55.3615 57.6693L54.9731 59.2735H59.9312V61.0399H52.9072V52.9307H59.518Z" fill="#B2B2B2"/>
<path d="M3.7471 55.0425C5.9741 54.4925 5.03619 52.1549 8.28373 52.9306L5.52787 56.9817L8.70103 61.0363C7.88708 61.0222 6.99463 61.1843 6.21787 60.867C5.2717 60.4792 4.83374 58.3708 3.95368 58.5718C3.51572 58.6705 2.37123 62.0446 0.0244141 61.0398L2.85051 56.6961L0.0244141 52.9341C2.2101 52.6062 3.20584 53.2796 3.75123 55.0425H3.7471Z" fill="#B2B2B2"/>
<path d="M32.2484 54.6864C30.0668 55.9063 30.3602 54.8698 28.9554 54.4819C24.5634 53.2726 24.365 60.4827 29.0628 59.2099C30.2941 58.875 29.8602 57.7785 32.2442 58.9279C30.7816 61.8966 25.9268 61.7379 24.0469 59.0478C20.7663 54.355 28.7818 49.7927 32.2484 54.6864Z" fill="#B2B2B2"/>
<path d="M39.751 52.9873L42.1598 53.1036C40.5402 55.7162 38.1768 57.8387 38.8585 61.04H36.7886C37.6686 57.7928 34.4459 55.7973 33.4873 52.9309C36.3341 52.3703 36.2018 54.7783 37.8256 56.0934L39.751 52.9837V52.9873Z" fill="#B2B2B2"/>
</svg>
